<?xml version="1.0" encoding="iso-8859-1"?>
<!-- Uploaded to: SVG Repo, www.svgrepo.com, Generator: SVG Repo Mixer Tools -->
<svg fill="#000000" height="800px" width="800px" version="1.1" id="Layer_1" xmlns="http://www.w3.org/2000/svg" xmlns:xlink="http://www.w3.org/1999/xlink" 
	 viewBox="0 0 330 330" xml:space="preserve">
<g id="XMLID_2_">
	<path id="XMLID_4_" d="M315,0H15C6.716,0,0,6.716,0,15v300c0,8.284,6.716,15,15,15h300c8.284,0,15-6.716,15-15V15
		C330,6.716,323.284,0,315,0z M300,300H30V30h270V300z"/>
	<path id="XMLID_7_" d="M75,270h180c8.284,0,15-6.716,15-15V75c0-8.284-6.716-15-15-15h-90c-8.284,0-15,6.716-15,15v47.58
		c-17.459,6.192-30,22.865-30,42.42c0,24.813,20.186,45,45,45s45-20.187,45-45c0-19.555-12.541-36.227-30-42.42V90h60v150H90V90h5
		c8.284,0,15-6.716,15-15s-6.716-15-15-15H75c-8.284,0-15,6.716-15,15v180C60,263.284,66.716,270,75,270z M165,180
		c-8.271,0-15-6.729-15-15s6.729-15,15-15s15,6.729,15,15S173.271,180,165,180z"/>
</g>
</svg>